<svg xmlns="http://www.w3.org/2000/svg" aria-hidden="true" style="position:absolute;width:0;height:0;overflow:hidden">
  <defs>
    <symbol id="map" viewBox="0 0 32 32">
      <path fill="#333" d="M16 32c8.837 0 16-7.163 16-16S24.837 0 16 0 0 7.163 0 16s7.163 16 16 16z"/>
      <path fill="#fff" d="M16 8c-2.745 0-4.971 2.238-4.971 5.001 0 4.775 4.972 10.999 4.972 10.999s4.97-6.225 4.97-11.001C20.971 10.238 18.746 8 16 8zm0 7.425c-1.3 0-2.351-1.058-2.351-2.363s1.056-2.367 2.351-2.367c1.3 0 2.351 1.058 2.351 2.367A2.356 2.356 0 0 1 16 15.425z"/>
    </symbol>
    <symbol id="mail" viewBox="0 0 32 32">
      <path fill="#333" d="M16 32c8.837 0 16-7.163 16-16S24.837 0 16 0 0 7.163 0 16s7.163 16 16 16z"/>
      <path fill="#fff" d="M8 11.628v9.058c0 .494.361.894.858.894h14.14c.496 0 .858-.404.858-.892v-9.06c0-.542-.324-.961-.858-.961H8.858c-.555 0-.858.431-.858.96zm1.305.788c0-.218.132-.342.342-.342.13 0 5.268 3.255 5.58 3.446l.804.501c.255-.172.511-.318.775-.495.539-.345 5.338-3.452 5.471-3.452.212 0 .343.124.343.343 0 .231-.446.46-.736.638-1.822 1.11-3.644 2.321-5.449 3.473-.106.071-.309.224-.462.201-.171-.026-5.399-3.385-6.351-3.945-.143-.085-.32-.161-.32-.367z"/>
    </symbol>
    <symbol id="tel" viewBox="0 0 32 32">
      <path fill="#333" d="M16 32c8.837 0 16-7.163 16-16S24.837 0 16 0 0 7.163 0 16s7.163 16 16 16z"/>
      <path fill="#fff" d="M22.663 19.312c-.609-.624-2.338-1.796-3.471-1.796-.263 0-.492.059-.679.18-.554.354-.997.629-1.209.629-.117 0-.241-.105-.517-.341l-.046-.042c-.763-.663-.926-.834-1.221-1.142l-.074-.079c-.055-.054-.101-.105-.148-.15-.258-.267-.446-.459-1.108-1.209l-.03-.033c-.316-.358-.524-.591-.537-.763-.012-.166.133-.437.505-.942.449-.608.466-1.358.053-2.228-.329-.689-.866-1.346-1.342-1.926l-.042-.049c-.407-.501-.882-.751-1.412-.751-.588 0-1.076.316-1.334.484-.021.012-.042.028-.062.042-.58.367-1.001.87-1.159 1.383-.238.77-.395 1.77.742 3.85.983 1.799 1.874 3.008 3.291 4.463 1.334 1.366 1.926 1.808 3.25 2.766 1.476 1.067 2.892 1.68 3.883 1.68.921 0 1.647 0 2.679-1.246 1.083-1.308.634-2.108-.016-2.78z"/>
    </symbol>
    <symbol id="search" viewBox="0 0 32 32">
      <path d="M24 13.333v-.018c0-5.891-4.776-10.667-10.667-10.667S2.666 7.424 2.666 13.315s4.776 10.667 10.667 10.667a10.62 10.62 0 0 0 6.558-2.253l-.024.018L28.4 30.28l1.879-1.879-8.533-8.533a10.596 10.596 0 0 0 2.252-6.533v-.001zm-10.667 8a8 8 0 0 1 0-16 8 8 0 0 1 0 16z"/>
    </symbol>
    <symbol id="arrow-down" viewBox="0 0 32 32">
      <path stroke-linecap="round" stroke-linejoin="round" stroke-width="2.909" d="m8 12 8 8 8-8"/>
    </symbol>
    <symbol id="logo" viewBox="0 0 116 32">
      <path fill="#1d1d1f" d="M31.073 1.348H7.389c-3.015 0-5.46 2.459-5.46 5.49v23.813L31.073 1.348z"/>
      <path fill="#c0e278" d="M2.034 30.652h23.515c2.994 0 5.421-2.44 5.421-5.451V1.558L2.035 30.652zm39.452-5.326 1.935-5.356h-3.684L34.913 6.647h3.923l3.525 9.753h2.332l3.525-9.753h3.895l-6.704 18.678h-3.923zm23.455-3.873c2.413-1.163 3.764-3.203 3.825-5.478l3.537-1.704c.771 4.268-1.525 8.329-5.826 10.402-5.234 2.523-10.965.675-13.347-4.324-2.418-5.069-.274-10.683 4.985-13.217 4.301-2.073 8.865-1.317 11.714 1.949l-3.537 1.705c-1.79-1.413-4.206-1.608-6.643-.434-3.417 1.647-4.754 5.069-3.174 8.385 1.547 3.244 5.073 4.351 8.467 2.716zm16-14.78h4.134l9.356 18.653h-4.134l-2.2-4.396h-10.15l-2.2 4.396h-4.108l9.303-18.652zm5.433 10.846-3.365-6.715-3.365 6.715h6.731zm27.43-10.845v18.652h-3.71V10.112H99.387v15.214h-3.71V6.674h18.127z"/>
      <path fill="#c0e278" d="M65.266 4.725h-6.147v2.989h6.147V4.725zm-4.132 14.641a1.01 1.01 0 0 0-1.008-1.013 1.01 1.01 0 0 0-1.007 1.011v.003c0 .56.451 1.013 1.007 1.013a1.011 1.011 0 0 0 1.008-1.011v-.002zm4.485-1.755c0-.333-.269-.603-.599-.603a.602.602 0 0 0 0 1.205c.33 0 .599-.27.599-.603zm-.299 3.881v-.004c0-.836-.677-1.515-1.513-1.517a1.517 1.517 0 0 0-1.511 1.516v.01c0 .836.676 1.514 1.511 1.516a1.517 1.517 0 0 0 1.513-1.517v-.004zm-2.198-2.821v-.001a.362.362 0 0 0-.36-.362.363.363 0 1 0 0 .726.362.362 0 0 0 .361-.362v-.001zm4.036.044c0-.2-.161-.362-.361-.363a.363.363 0 0 0 0 .727.362.362 0 0 0 .361-.362v-.001z"/>
    </symbol>
    <symbol id="battery" viewBox="0 0 66 32">
<path fill="none" opacity="0.4" stroke="#000" stroke-linejoin="miter" stroke-linecap="butt" stroke-miterlimit="4" stroke-width="2.4615" d="M9.846 1.231h41.103c4.758 0 8.615 3.857 8.615 8.615v12.308c0 4.758-3.857 8.615-8.615 8.615h-41.103c-4.758 0-8.615-3.857-8.615-8.615v-12.308c0-4.758 3.857-8.615 8.615-8.615z"></path>
<path fill="#000" opacity="0.5" d="M63.227 11.077v9.846c1.918-0.839 3.234-2.72 3.234-4.908 0-0.005 0-0.010-0-0.015v0.001c0-0.004 0-0.010 0-0.015 0-2.189-1.316-4.070-3.2-4.895l-0.034-0.013z"></path>
<path fill="#000" d="M9.787 4.923h31.495c2.719 0 4.923 2.204 4.923 4.923v12.308c0 2.719-2.204 4.923-4.923 4.923h-31.495c-2.719 0-4.923-2.204-4.923-4.923v-12.308c0-2.719 2.204-4.923 4.923-4.923z"></path>
</symbol>
<symbol id="signal" viewBox="0 0 49 32">
<path d="M46.356 1.231h-2.878c-1.588 0-2.875 1.241-2.875 2.769v24c0 1.529 1.287 2.769 2.875 2.769h2.878c1.588 0 2.875-1.241 2.875-2.769v-24c0-1.529-1.287-2.769-2.875-2.769zM29.945 7.692h2.875c1.59 0 2.878 1.241 2.878 2.769v17.538c0 1.529-1.287 2.769-2.878 2.769h-2.875c-1.588 0-2.875-1.241-2.875-2.769v-17.538c0-1.529 1.287-2.769 2.875-2.769zM19.286 14.154h-2.875c-1.59 0-2.878 1.241-2.878 2.769v11.077c0 1.529 1.287 2.769 2.878 2.769h2.875c1.588 0 2.875-1.241 2.875-2.769v-11.077c0-1.529-1.287-2.769-2.875-2.769zM5.753 19.692h-2.878c-1.588 0-2.875 1.241-2.875 2.769v5.538c0 1.529 1.287 2.769 2.875 2.769h2.878c1.588 0 2.875-1.241 2.875-2.769v-5.538c0-1.529-1.287-2.769-2.875-2.769z"></path>
</symbol>
<symbol id="connection" viewBox="0 0 42 32">
<path d="M20.923 6.646c6.073 0 11.914 2.486 16.313 6.942 0.33 0.345 0.862 0.337 1.186-0.012l3.168-3.404c0.159-0.172 0.256-0.403 0.256-0.657 0-0.003 0-0.006-0-0.008v0c0-0 0-0 0-0 0-0.257-0.1-0.491-0.264-0.665l0 0.001c-11.55-11.791-29.77-11.791-41.319 0-0.163 0.173-0.263 0.407-0.263 0.664 0 0 0 0 0 0v0c0 0.246 0.091 0.487 0.256 0.665l3.166 3.404c0.148 0.163 0.361 0.265 0.598 0.265 0.232 0 0.441-0.098 0.588-0.254l0-0c4.404-4.453 10.242-6.939 16.315-6.939zM20.923 17.723c3.338 0 6.553 1.319 9.026 3.705 0.148 0.154 0.355 0.249 0.585 0.249 0.238 0 0.452-0.102 0.601-0.265l0.001-0.001 3.166-3.404c0.159-0.173 0.256-0.404 0.256-0.659 0-0.005-0-0.009-0-0.014v0.001c-0.001-0.259-0.104-0.494-0.271-0.667l0 0c-7.53-7.458-19.19-7.458-26.72 0-0.166 0.172-0.269 0.406-0.271 0.664v0c0 0.254 0.091 0.497 0.258 0.674l3.163 3.404c0.149 0.164 0.363 0.266 0.601 0.266 0.23 0 0.437-0.095 0.585-0.249l0-0c2.471-2.383 5.686-3.705 9.019-3.705zM27.262 25.174c0 0.008 0 0.017 0 0.026 0 0.251-0.098 0.479-0.257 0.649l-5.474 5.883c-0.151 0.165-0.368 0.268-0.608 0.268h-0c-0.24-0.002-0.455-0.106-0.605-0.27l-0.001-0.001-5.474-5.883c-0.159-0.169-0.256-0.397-0.256-0.648 0-0.008 0-0.017 0-0.025l-0 0.001c0.004-0.259 0.111-0.492 0.283-0.66l0-0c1.587-1.464 3.717-2.362 6.055-2.362s4.468 0.898 6.062 2.368l-0.006-0.006c0.171 0.168 0.277 0.401 0.281 0.659v0.001z"></path>
</symbol>
<symbol id="mobile-open" viewBox="0 0 37 32">
<path stroke-linejoin="miter" stroke-linecap="round" stroke-miterlimit="4" stroke-width="3.3684" d="M1.684 2.526h33.684M1.684 16h33.684M1.684 29.474h33.684"></path>
</symbol>
<symbol id="close-mobile" viewBox="0 0 30 32">
<path fill="none" stroke="#fff" stroke-linejoin="miter" stroke-linecap="round" stroke-miterlimit="4" stroke-width="1.6" d="M0.8 1.6l28.539 28.027M0.8 30.4l28.539-28.027"></path>
</symbol>
  </defs>
</svg>
